<svg width="48" height="48" viewBox="0 0 48 48" fill="none" xmlns="http://www.w3.org/2000/svg">
  <path d="M36 19.6c-1.5-4.6-6.6-6.8-11.4-4.8-4.8 2-7.7 6.9-6.2 11.5 1.6 5 7.7 7.3 13.2 4.8 4.9-2.1 6.1-6.5 4.4-11.5Z" fill="#ff4a3d"/>
  <path d="M10.2 30.7c1.4-6.4 10.2-12 19.4-12.5 7.6-.4 12.8 2.9 13.1 7.7.3 6.2-7.2 12-16.8 13-8.8.9-16.3-2.7-15.7-8.2Z" fill="#ff4a3d"/>
  <path d="M34.2 9.5c4 .7 6.9 3.8 7.2 7.7M34.8 3.8c6.8.8 12 6 12.7 12.8" stroke="#ffbf36" stroke-width="3" stroke-linecap="round"/>
  <ellipse cx="25" cy="29.4" rx="7.8" ry="5.6" fill="white"/>
  <circle cx="22.8" cy="28.5" r="2.3" fill="#101010"/>
  <circle cx="28.4" cy="30.1" r="1.7" fill="#101010"/>
</svg>
